<svg xmlns="http://www.w3.org/2000/svg" viewBox="0 0 64 64" width="64" height="64" role="img" aria-label="Patent 1024">
  <title>Patent 1024</title>
  <path d="M32 56.05 L32 44.05" fill="none" stroke="#FFFFFF" stroke-width="4" stroke-linecap="round" stroke-linejoin="round"/>
  <path d="M32 44.05 L18 32.05 M32 44.05 L46 32.05" fill="none" stroke="#FFFFFF" stroke-width="3.5" stroke-linecap="round" stroke-linejoin="round"/>
  <path d="M18 32.05 L11 20.05 M18 32.05 L25 20.05 M46 32.05 L39 20.05 M46 32.05 L53 20.05" fill="none" stroke="#7FC9EC" stroke-width="3" stroke-linecap="round" stroke-linejoin="round"/>
  <path d="M11 20.05 L7.5 8.05 M11 20.05 L14.5 8.05 M25 20.05 L21.5 8.05 M25 20.05 L28.5 8.05 M39 20.05 L35.5 8.05 M39 20.05 L42.5 8.05 M53 20.05 L49.5 8.05 M53 20.05 L56.5 8.05" fill="none" stroke="#7FC9EC" stroke-width="2.5" stroke-linecap="round" stroke-linejoin="round"/>
  <circle cx="7.5" cy="8.05" r="2.1" fill="#00A8E8"/>
  <circle cx="14.5" cy="8.05" r="2.1" fill="#00A8E8"/>
  <circle cx="21.5" cy="8.05" r="2.1" fill="#00A8E8"/>
  <circle cx="28.5" cy="8.05" r="2.1" fill="#00A8E8"/>
  <circle cx="35.5" cy="8.05" r="2.1" fill="#00A8E8"/>
  <circle cx="42.5" cy="8.05" r="2.1" fill="#00A8E8"/>
  <circle cx="49.5" cy="8.05" r="2.1" fill="#00A8E8"/>
  <circle cx="56.5" cy="8.05" r="2.1" fill="#00A8E8"/>
</svg>
